<svg xmlns="http://www.w3.org/2000/svg" width="222.802" height="192.969" viewBox="0 0 222.802 192.969"><path d="M168.051,444.912c-1.527.327-.936-.853-.936-1.433" transform="translate(-166.502 -252.499)" fill="none" stroke="#fff" stroke-miterlimit="10"/><path d="M292.748,252.5c25.793.383,48.3,8.66,67.725,26.159a85.884,85.884,0,0,1,19.27,103.519c-14.265,27.268-37.71,43.581-68.1,49.316-25.443,4.8-49.356.55-71.58-12.954a91.314,91.314,0,0,1-31.014-30.885c-16.446-26.816-17.289-54.858-4.175-82.332,13.071-27.384,36.191-43.854,66.034-50.558A100,100,0,0,1,292.748,252.5Z" transform="translate(-166.502 -252.499)" fill="#68c185"/><path d="M355.725,313.263c-.74,13.407-10.391,25.938-23.192,30.325a80.957,80.957,0,0,1-24.193,4.778c-2.487.065-3.578,1.135-4.542,3.269-5.147,11.383-8.313,23.153-7.835,35.76.192,5.072.157,10.153.226,15.229-.87,1.214.281,2.9-.936,4.03l-2.649-.016c-1.5-3.109.2-6.546-1-9.686.021-12.519-7.3-21.215-15.41-29.5-1.3-1.323-2.917-1-4.5-.949a77.281,77.281,0,0,1-16.668-.839c-12.383-2.3-21.31-8.662-25.594-20.805a49.136,49.136,0,0,1-3.11-16.318c-.006-2.461.638-3.745,3.365-4.088,8.5-1.069,17.008-.848,25.065,1.839,11.805,3.938,19.307,12.523,21.116,24.772,1.242,8.412,2.73,15.949,10.3,21.191,2.042,1.415,2.955,4.454,4.386,6.747,2.364.471,2.266-1.216,2.417-2.72.167-1.651-.427-3.366.423-4.957,1.828-7.972,2.826-16.2,7.748-23.17,1.386-1.964.779-4.277.033-6.429a16.517,16.517,0,0,1,0-12.406c.658-3.256,1.23-6.532,1.989-9.764,3.094-13.187,12.394-20.586,24.275-25.287,7.562-2.992,15.574-4.3,23.68-4.879,1.217-.087,2.559-.409,3.613.636C357.02,297.686,356.156,305.484,355.725,313.263Z" transform="translate(-166.502 -252.499)" fill="#fdfefd"/><path d="M291.605,396.952c1.523,3.106.025,6.523,1,9.687h-17.28l0-.9a101.367,101.367,0,0,1,10.778.077c4.52.484,6-1.333,5.4-5.565A18.484,18.484,0,0,1,291.605,396.952Z" transform="translate(-166.502 -252.499)" fill="#76c592"/><path d="M301.18,329.316l-.006,12.406C298.248,339.162,298.251,331.867,301.18,329.316Z" transform="translate(-166.502 -252.499)" fill="#73c48e"/><path d="M355.725,313.263c-.339-7.746.445-15.54-.988-23.24C357.957,297.647,357.116,305.443,355.725,313.263Z" transform="translate(-166.502 -252.499)" fill="#f0f8f2"/><path d="M295.253,406.654q.469-2.013.937-4.028c-.013,2.408,1.181,3.248,3.568,3.154a43.582,43.582,0,0,1,11.748.874Z" transform="translate(-166.502 -252.499)" fill="#76c592"/><path d="M293.394,371.321a23.2,23.2,0,0,1-.643,8.33c-.2.634-.083,1.783-1.278,1.335-.8-.3-.935-1.172-.919-1.988C293.963,377.347,291.2,373.421,293.394,371.321Z" transform="translate(-166.502 -252.499)" fill="#b1dcbf"/><path d="M308.7,341.649c5.89-10.878,14.421-19.492,23.575-27.606,3.332-2.953,6.409-6.194,9.57-9.336.894-.888,2.021-1.919.787-3.231s-2.336-.323-3.252.594c-6.957,6.959-14.6,13.174-21.344,20.4a118.84,118.84,0,0,0-12.207,15.923c-4.3-16.735,7.67-36.467,24.774-41.353a88.208,88.208,0,0,1,18.218-3.617c1.659-.113,3.212-.509,3.976,1.5a61.912,61.912,0,0,1,.019,16.228c-1.729,6.161-2.652,12.379-7.027,17.8-7.7,9.533-17.907,13.1-29.328,14.726-1.993.865-4.086.345-6.13.388C308.741,344.093,307.9,343.356,308.7,341.649Z" transform="translate(-166.502 -252.499)" fill="#68c186"/><path d="M271.3,357.165c-5.565-3.289-9.315-8.56-14.008-12.8-.825-.746-1.557-1.593-2.378-2.344-1.37-1.254-3.288-2.305-4.647-.93-1.806,1.828.465,3.264,1.653,4.138,6.185,4.552,11,10.512,16.557,15.7.617,1.054-.4,1.3-.894,1.807-11,.339-21.128-1.28-29.113-10.134-5.827-6.46-7.5-14.084-8.291-22.209-.2-2.024,1.36-2.355,2.806-2.447,19.991-1.278,33.451,3.277,39.37,24.316C272.746,354.052,273.984,356.028,271.3,357.165Z" transform="translate(-166.502 -252.499)" fill="#68c186"/><path d="M352.813,311.147q-.009-8.115-.019-16.228A29.381,29.381,0,0,1,352.813,311.147Z" transform="translate(-166.502 -252.499)" fill="#f0f8f2"/><path d="M308.7,341.649c1.717,4,5.276.957,7.761,2.022-2.131,1.3-4.534.879-6.821.963C306.156,344.761,307.474,343.135,308.7,341.649Z" transform="translate(-166.502 -252.499)" fill="#84ca9a"/><path d="M271.3,357.165c1.775-1.331.621-3.289,1.055-4.907,1.458,1.508,1.291,3.532.912,5.158C272.822,359.331,271.883,358.11,271.3,357.165Z" transform="translate(-166.502 -252.499)" fill="#9bd3ae"/><path d="M267.585,362.732l.894-1.807c.709.09,1.818,0,1.649.978C269.869,363.4,268.543,362.744,267.585,362.732Z" transform="translate(-166.502 -252.499)" fill="#96d1aa"/></svg>