<svg xmlns="http://www.w3.org/2000/svg" width="250" height="250" viewBox="0 0 250 250"><path d="M314.092,295h18.031c.977.292,1.949.608,2.933.874,6,1.617,12.219,2.658,17.955,4.93a77.239,77.239,0,0,1,48.774,71.41q.139,63.09-.04,126.18c-.069,15.6-6.982,28.024-19.435,37.349-6.429,4.814-13.847,7.234-21.648,8.655q-34.45.057-68.9.1c-12.09,0-24.181-.114-36.271-.177-2.908-.706-5.892-1.189-8.711-2.154a46.663,46.663,0,0,1-32.1-44.884q-.018-52.982,0-105.963V388.47H370.621c0-5.464.073-10.654-.015-15.842-.186-10.807-3.4-20.667-10.418-28.9-12.959-15.21-29.372-20.915-48.786-15.63-16.844,4.585-27.653,15.844-32.5,32.609-1.133,3.917-1.518,8.05-2.242,12.054H245.906c0-.782-.018-1.349,0-1.915.656-18.2,6.67-34.394,18.532-48.229,12.708-14.822,28.666-23.983,48.158-26.684C313.128,295.855,313.6,295.32,314.092,295ZM245.864,419.871v2.593q0,37.143,0,74.287c0,9.948,6.651,16.568,16.646,16.57q45.669.009,91.337,0c10.156,0,16.766-6.58,16.769-16.7q.014-37.143,0-74.287c0-.788-.068-1.576-.109-2.468Z" transform="translate(-183 -295)" fill="#43ba8b"/><path d="M360.662,544.4l3.625.6H252.2l3.289-.677c12.09.063,24.181.177,36.271.177Q326.212,544.5,360.662,544.4Z" transform="translate(-183 -295)" fill="#fcfcfb"/><path d="M183.487,295l-.487.487Z" transform="translate(-183 -295)" fill="#fcfcfb"/><path d="M183,544.513l.487.487Z" transform="translate(-183 -295)" fill="#fcfcfb"/><path d="M432.513,545l.487-.487Z" transform="translate(-183 -295)" fill="#fcfcfb"/><path d="M245.864,419.871H370.508c.041.892.109,1.68.109,2.468q.009,37.144,0,74.287c0,10.115-6.613,16.693-16.769,16.7q-45.669.009-91.337,0c-10,0-16.643-6.622-16.646-16.57q-.011-37.143,0-74.287Zm77.974,46.717a15.594,15.594,0,1,0-15.64,15.545A15.542,15.542,0,0,0,323.838,466.588Z" transform="translate(-183 -295)" fill="#f6f5f5"/><path d="M323.838,466.588a15.594,15.594,0,1,1-15.549-15.641A15.52,15.52,0,0,1,323.838,466.588Z" transform="translate(-183 -295)" fill="#45bb8c"/></svg>