<svg xmlns="http://www.w3.org/2000/svg" width="300" height="300" viewBox="0 0 300 300"><path d="M353.977,577c-4.77-1.176-9.7-1.921-14.284-3.6-26.595-9.737-42.588-28.7-46.322-56.733-5-37.5,21.6-71.541,59.39-76.308a68.217,68.217,0,0,1,76.148,56.2c.281,1.682.724,3.337,1.091,5v14.62c-.36,1.263-.812,2.507-1.068,3.79q-8.012,40.186-46.69,53.683c-4.054,1.416-8.312,2.245-12.476,3.346Zm1.171-100.014c0-2.046.024-3.787-.005-5.527-.063-3.81-2.455-6.54-5.861-6.723-3.64-.2-6.239,2.2-6.58,6.267-.161,1.906-.028,3.837-.028,6.112-1.572,0-2.713,0-3.854,0-6.68.018-8.706,2.045-8.71,8.731q-.006,12.858,0,25.716c0,7.014-.05,14.028.026,21.04.047,4.458,2.531,6.9,6.848,6.968,1.82.028,3.641,0,5.761,0,0,2.472-.174,4.609.039,6.707a5.928,5.928,0,0,0,6.473,5.7c3.409-.159,5.776-2.69,5.879-6.361.054-1.921.01-3.846.01-5.89h12.422c0,2.162-.127,4.192.028,6.2a6.269,6.269,0,0,0,12.529.033,26.681,26.681,0,0,0,.021-4.67c-.162-1.863.424-2.9,2.181-3.859a21.279,21.279,0,0,0,5.87-4.662c5.959-6.963,5.806-15.273-.159-24.425,8.457-11.17,4.073-22.757-2.881-27.091-4.164-2.6-5.429-5.371-5.1-9.969a5.98,5.98,0,0,0-6.272-6.562c-3.568.035-6.073,2.7-6.227,6.712-.07,1.811-.012,3.627-.012,5.55Z" transform="translate(-130 -277)" fill="#4b6cb3"/><path d="M430,277.585l-.585-.585Z" transform="translate(-130 -277)" fill="#f9f8f8"/><path d="M130,576.415l.585.585Z" transform="translate(-130 -277)" fill="#f9f8f8"/><path d="M337.066,364.821l1.706-.1,64.314.046-.027,0c-.909,4.148-1.657,8.339-2.755,12.436-4.5,16.794-9.1,33.56-13.683,50.333-.28,1.028-.685,2.023-1.163,3.418-24.664-7.133-48-4.012-69.286,10.387-21.305,14.414-32.84,34.929-35.568,60.812h-3.161c-23.488,0-46.979-.217-70.464.077A32.444,32.444,0,0,1,174.91,476.59c-2.806-12.194-6.546-24.171-9.841-36.254-3.73-13.676-7.411-27.366-11.14-41.043q-4.635-17-9.33-33.99a.227.227,0,0,0,.068-.326c.777-.044,1.553-.126,2.329-.125q35.335,0,70.671.022,57.263.006,114.524,0C333.816,364.873,335.441,364.839,337.066,364.821Z" transform="translate(-130 -277)" fill="#43ba8c"/><path d="M337.066,364.821c-1.625.018-3.25.052-4.875.052q-57.261,0-114.524,0-35.335,0-70.671-.022c-.776,0-1.552.081-2.329.125a8.961,8.961,0,0,1,2.552-.808q93.579-.058,187.158-.007A11.565,11.565,0,0,1,337.066,364.821Z" transform="translate(-130 -277)" fill="#f5f5f4"/><path d="M403.086,364.764l-64.314-.046a16.58,16.58,0,0,1,3.026-.559q29.146-.051,58.293,0A15.207,15.207,0,0,1,403.086,364.764Z" transform="translate(-130 -277)" fill="#f5f5f4"/><path d="M355.148,476.986h12.4c0-1.923-.058-3.739.012-5.55.154-4.011,2.659-6.677,6.227-6.712a5.98,5.98,0,0,1,6.272,6.562c-.328,4.6.937,7.373,5.1,9.969,6.954,4.334,11.338,15.921,2.881,27.091,5.965,9.152,6.118,17.462.159,24.425a21.279,21.279,0,0,1-5.87,4.662c-1.757.962-2.343,2-2.181,3.859a26.681,26.681,0,0,1-.021,4.67,6.269,6.269,0,0,1-12.529-.033c-.155-2.009-.028-4.039-.028-6.2H355.146c0,2.044.044,3.969-.01,5.89-.1,3.671-2.47,6.2-5.879,6.361a5.928,5.928,0,0,1-6.473-5.7c-.213-2.1-.039-4.235-.039-6.707-2.12,0-3.941.023-5.761,0-4.317-.065-6.8-2.51-6.848-6.968-.076-7.012-.025-14.026-.026-21.04q0-12.858,0-25.716c0-6.686,2.03-8.713,8.71-8.731,1.141,0,2.282,0,3.854,0,0-2.275-.133-4.206.028-6.112.341-4.064,2.94-6.463,6.58-6.267,3.406.183,5.8,2.913,5.861,6.723C355.172,473.2,355.148,474.94,355.148,476.986Zm-12.241,50.087c2.568,0,4.973.018,7.378,0,8.173-.073,16.35-.036,24.517-.3,3.468-.114,5.666-3.357,5.136-6.791-.534-3.455-2.954-5.347-7.181-5.372-9.25-.053-18.5-.025-27.751-.013a19.069,19.069,0,0,0-2.1.241Zm-.042-24.943c10.634,0,20.931.079,31.225-.044,3.562-.043,5.9-2.832,5.829-6.338s-2.439-5.868-6.173-5.906c-7.584-.077-15.169-.056-22.754-.073-2.677,0-5.355,0-8.127,0Z" transform="translate(-130 -277)" fill="#f4f4f6"/><path d="M342.907,527.073V514.831a19.069,19.069,0,0,1,2.1-.241c9.251-.012,18.5-.04,27.751.013,4.227.025,6.647,1.917,7.181,5.372.53,3.434-1.668,6.677-5.136,6.791-8.167.267-16.344.23-24.517.3C347.88,527.091,345.475,527.073,342.907,527.073Z" transform="translate(-130 -277)" fill="#506fb5"/><path d="M342.865,502.13V489.769c2.772,0,5.45,0,8.127,0,7.585.017,15.17,0,22.754.073,3.734.038,6.106,2.4,6.173,5.906s-2.267,6.3-5.829,6.338C363.8,502.209,353.5,502.13,342.865,502.13Z" transform="translate(-130 -277)" fill="#4b6cb3"/></svg>