<svg xmlns="http://www.w3.org/2000/svg" width="250" height="250" viewBox="0 0 250 250"><path d="M384,360.534c-.491.47-1.31.87-1.426,1.419-2.375,11.258-6.744,21.624-14.206,30.441a68.939,68.939,0,0,1-15.529,13.636,75.211,75.211,0,0,1-17.994,8.2c-3.417,1.086-7.11,1.349-10.7,1.842-11.86,1.631-23.238-.45-34.092-5.14A61.968,61.968,0,0,1,269.631,396.9a66.938,66.938,0,0,1-15.774-25.6,58.688,58.688,0,0,1-3.323-18.974c.037-2.4-1.01-2.547-2.905-2.544q-47.616.062-95.234.029c-3.978,0-7.966.164-11.931-.064a40.76,40.76,0,0,1-6.464-1.4V208H356.71c.054.4-.042.958.186,1.17,1.968,1.836,1.775,4.2,1.774,6.56q-.027,39.833.041,79.667a5.931,5.931,0,0,0,1.225,3.676c2.695,3,5.921,5.544,8.429,8.676A84.037,84.037,0,0,1,375.854,319a59.787,59.787,0,0,1,6.534,18.7c.128.7,1.055,1.253,1.612,1.874Zm-46.449-74.145a5.1,5.1,0,0,0,.164-.909c.013-10.8.041-21.6-.03-32.4a3.984,3.984,0,0,0-1.123-2.485q-9.872-9.972-19.9-19.787a5.3,5.3,0,0,0-3.328-1.43q-67.116-.114-134.233-.018a4.962,4.962,0,0,0-3.127,1.347q-9.952,9.75-19.7,19.706a4.988,4.988,0,0,0-1.4,3.1q-.126,25.7,0,51.4a4.652,4.652,0,0,0,1.272,2.909q9.883,10.09,19.952,20a4.632,4.632,0,0,0,2.937,1.216q35.323.1,70.649.048c3.931,0,3.931,0,5.4-3.708A66.314,66.314,0,0,1,328,284.361C331.177,284.893,334.308,285.693,337.551,286.389Zm12.672-69.407H142.437V341.416H251.026l.473-4.122h-3.222q-48,0-95.99,0c-4.742,0-5.712-.964-5.712-5.7q-.006-52.38,0-104.76c0-4.8,1-5.772,5.9-5.772q93.918-.006,187.838-.007c4.582,0,5.742,1.161,5.742,5.744q0,29.722,0,59.446c0,4.306,0,4.306,4.176,5.752Zm-33.1,74.717A58.211,58.211,0,1,0,375.2,349.783,58.142,58.142,0,0,0,317.119,291.7Zm-152.273,37.48-10.158-10.252c0,2.957-.056,5.855.052,8.747.019.515.7,1.422,1.1,1.439C158.874,329.235,161.911,329.179,164.846,329.179Zm.164-99.868c-3.075,0-5.971-.058-8.86.06a1.852,1.852,0,0,0-1.269,1.286c-.118,2.881-.059,5.769-.059,8.816Zm162.848.1-.337.62c1.684,1.586,3.413,3.126,5.037,4.771,1.587,1.608,3.066,3.324,5.022,5.461V229.413Z" transform="translate(-134 -208)" fill="#fafdfd"/><path d="M384,208.487l-.487-.487Z" transform="translate(-134 -208)" fill="#fafdfd"/><path d="M383.513,458l.487-.487Z" transform="translate(-134 -208)" fill="#fafdfd"/><path d="M337.551,286.389c-3.243-.7-6.374-1.5-9.551-2.028a66.314,66.314,0,0,0-72.911,41.017c-1.471,3.705-1.471,3.708-5.4,3.708q-35.325,0-70.649-.048a4.632,4.632,0,0,1-2.937-1.216q-10.071-9.9-19.952-20a4.652,4.652,0,0,1-1.272-2.909q-.115-25.7,0-51.4a4.988,4.988,0,0,1,1.4-3.1q9.749-9.953,19.7-19.706a4.962,4.962,0,0,1,3.127-1.347q67.116-.093,134.233.018a5.3,5.3,0,0,1,3.328,1.43q10.055,9.786,19.9,19.787a3.984,3.984,0,0,1,1.123,2.485c.071,10.8.043,21.6.03,32.4A5.1,5.1,0,0,1,337.551,286.389Zm-102.229,9.6H227.41c-.789,8.009,4.822,16.427,13.054,19.527,1.34.5,1.757,1.064,1.708,2.394-.085,2.314-.024,4.634-.024,6.814h7.914c.133-2.233.358-4.466.366-6.7a2.429,2.429,0,0,1,1.826-2.621c9.438-4.019,14.756-13.982,12.766-23.424-1.569-7.443-5.773-12.721-12.746-15.712a2.624,2.624,0,0,1-1.86-2.885c.093-4.708.033-9.419.032-14.128v-8.114c4.584,2.749,6.362,6.561,6.626,11.272h8.219a19.439,19.439,0,0,0-.012-2.252c-1.024-8.263-5.382-14.073-13.052-17.261a2.4,2.4,0,0,1-1.813-2.639c.059-2.17.016-4.342.016-6.685h-8.278c0,2.335-.062,4.516.022,6.691.055,1.389-.358,2-1.778,2.6A21.194,21.194,0,0,0,229.545,272.6a20.749,20.749,0,0,0,12.474,10.262V307.1C237.406,304.612,235.948,300.571,235.322,295.989Z" transform="translate(-134 -208)" fill="#11ca8f"/><path d="M350.223,216.982V292c-4.176-1.446-4.176-1.446-4.176-5.752q0-29.722,0-59.446c0-4.583-1.16-5.744-5.742-5.744q-93.919,0-187.838.007c-4.892,0-5.9.976-5.9,5.772q0,52.38,0,104.76c0,4.735.97,5.7,5.712,5.7q48,0,95.99,0H251.5l-.473,4.122H142.437V216.982Z" transform="translate(-134 -208)" fill="#23ca95"/><path d="M317.119,291.7a58.211,58.211,0,1,1-58.365,58.046A58.153,58.153,0,0,1,317.119,291.7Zm53.833,58.384A54,54,0,1,0,316.271,403.9,54.069,54.069,0,0,0,370.952,350.083Z" transform="translate(-134 -208)" fill="#3970f5"/><path d="M164.846,329.179c-2.935,0-5.972.056-9-.066-.4-.017-1.085-.924-1.1-1.439-.108-2.892-.052-5.79-.052-8.747Z" transform="translate(-134 -208)" fill="#26cb96"/><path d="M165.01,229.311l-10.188,10.162c0-3.047-.059-5.935.059-8.816a1.852,1.852,0,0,1,1.269-1.286C159.039,229.253,161.935,229.311,165.01,229.311Z" transform="translate(-134 -208)" fill="#1ec690"/><path d="M327.858,229.413h9.722v10.852c-1.956-2.137-3.435-3.853-5.022-5.461-1.624-1.645-3.353-3.185-5.037-4.771Z" transform="translate(-134 -208)" fill="#19c78f"/><path d="M235.322,295.989c.626,4.582,2.084,8.623,6.7,11.112V282.862A20.749,20.749,0,0,1,229.545,272.6,21.194,21.194,0,0,1,240.4,242.866c1.42-.6,1.833-1.21,1.778-2.6-.084-2.175-.022-4.356-.022-6.691h8.278c0,2.343.043,4.515-.016,6.685a2.4,2.4,0,0,0,1.813,2.639c7.67,3.188,12.028,9,13.052,17.261a19.439,19.439,0,0,1,.012,2.252h-8.219c-.264-4.711-2.042-8.523-6.626-11.272v8.114c0,4.709.061,9.42-.032,14.128a2.624,2.624,0,0,0,1.86,2.885c6.973,2.991,11.177,8.269,12.746,15.712,1.99,9.442-3.328,19.4-12.766,23.424a2.429,2.429,0,0,0-1.826,2.621c-.008,2.233-.233,4.466-.366,6.7h-7.914c0-2.18-.061-4.5.024-6.814.049-1.33-.368-1.89-1.708-2.394-8.232-3.1-13.843-11.518-13.054-19.527Zm6.715-44.487c-4.164,1.757-6.771,6.488-6.566,11.736.181,4.643,3.065,9.158,6.566,10.287Zm8.531,55.714c4.717-3.068,6.573-6.99,6.373-12.09-.181-4.64-2.2-8.049-6.373-10.686Z" transform="translate(-134 -208)" fill="#f7fdfc"/><path d="M370.952,350.083A54,54,0,1,1,317.638,295.8,53.835,53.835,0,0,1,370.952,350.083Zm-8.767-.134c1.525-24.794-20.557-45.782-44.835-45.862a45.785,45.785,0,0,0-.7,91.567C341.081,395.92,363.652,374.9,362.185,349.949Z" transform="translate(-134 -208)" fill="#f8fbfc"/><path d="M242.037,251.5v22.023c-3.5-1.129-6.385-5.644-6.566-10.287C235.266,257.99,237.873,253.259,242.037,251.5Z" transform="translate(-134 -208)" fill="#1acb92"/><path d="M250.568,307.216V284.44c4.172,2.637,6.192,6.046,6.373,10.686C257.141,300.226,255.285,304.148,250.568,307.216Z" transform="translate(-134 -208)" fill="#1ac790"/><path d="M362.185,349.949c1.467,24.954-21.1,45.971-45.535,45.7a45.785,45.785,0,0,1,.7-91.567C341.628,304.167,363.71,325.155,362.185,349.949Zm-57.8-20.776v41.595h-8.029v8.354h12.365v8.833l8.424-.769v-7.992h4.124v7.968h8.177c0-2.256.089-4.358-.029-6.448A3.086,3.086,0,0,1,331.3,377.3a10.961,10.961,0,0,0,6.238-8.773,60.612,60.612,0,0,0-.041-12.394c-.223-2.123-2.485-4.115-2.468-6.156.018-2.137,2.13-4.188,2.481-6.41.488-3.095.161-6.314.236-9.479.127-5.392-2.238-9.294-6.849-12.018a3.443,3.443,0,0,1-1.4-2.37c-.19-2.319-.066-4.664-.066-7.128h-8.332v7.916h-4.169V312.4c-2.374,0-4.475.06-6.571-.021-1.412-.055-1.846.542-1.8,1.874.071,2.076.019,4.157.019,6.5h-12.2v8.415Z" transform="translate(-134 -208)" fill="#326dfc"/><path d="M304.381,329.173h-8v-8.415h12.2c0-2.348.052-4.429-.019-6.5-.046-1.332.388-1.929,1.8-1.874,2.1.081,4.2.021,6.571.021v8.084h4.169v-7.916h8.332c0,2.464-.124,4.809.066,7.128a3.443,3.443,0,0,0,1.4,2.37c4.611,2.724,6.976,6.626,6.849,12.018-.075,3.165.252,6.384-.236,9.479-.351,2.222-2.463,4.273-2.481,6.41-.017,2.041,2.245,4.033,2.468,6.156a60.612,60.612,0,0,1,.041,12.394A10.961,10.961,0,0,1,331.3,377.3a3.086,3.086,0,0,0-1.888,3.418c.118,2.09.029,4.192.029,6.448h-8.177v-7.968h-4.124v7.992l-8.424.769v-8.833H296.352v-8.354h8.029Zm8.844,16.323.056.026c4.251.072,8.5.17,12.753.181.485,0,.971-.483,1.457-.742.491-.994,1.34-1.964,1.405-2.984.19-2.958-.038-5.941.1-8.9.1-2.014-.64-3.215-2.563-3.719l-12.786-.117a.257.257,0,0,0-.3,0,9.277,9.277,0,0,0-.56,2.154q-.086,5.685,0,11.372A18.14,18.14,0,0,0,313.225,345.5Zm13.913,9.161-14.193-.869v17.143l13.582-.619c1.811-.48,2.561-1.568,2.467-3.517-.146-3.047.112-6.118-.122-9.155C328.793,356.607,327.744,355.649,327.138,354.657Z" transform="translate(-134 -208)" fill="#f9fbfc"/><path d="M313.35,329.242a.259.259,0,0,1,.3,0l12.785.117c1.923.5,2.658,1.705,2.563,3.719-.138,2.963.09,5.946-.1,8.9-.065,1.02-.914,1.99-1.405,2.983l-14.21.562-.056-.026Q313.288,337.369,313.35,329.242Z" transform="translate(-134 -208)" fill="#326dfc"/><path d="M327.138,354.657c.606.992,1.655,1.95,1.734,2.983.234,3.037-.024,6.108.122,9.155.094,1.949-.656,3.037-2.467,3.517H313.336c0-5.031.025-9.572-.014-14.111-.012-1.4.778-1.546,1.881-1.54C319.181,354.683,323.159,354.661,327.138,354.657Z" transform="translate(-134 -208)" fill="#306cfd"/><path d="M327.138,354.657c-3.979,0-7.957.026-11.935,0-1.1-.006-1.893.141-1.881,1.54.039,4.539.014,9.08.014,14.111h13.191l-13.582.619V353.788Z" transform="translate(-134 -208)" fill="#5875c3"/><path d="M313.281,345.522l14.21-.562c-.486.26-.972.745-1.457.743C321.783,345.692,317.532,345.594,313.281,345.522Z" transform="translate(-134 -208)" fill="#738bc6"/><path d="M313.35,329.242q-.062,8.127-.125,16.254a18.14,18.14,0,0,1-.44-2.728q-.077-5.685,0-11.372A9.277,9.277,0,0,1,313.35,329.242Z" transform="translate(-134 -208)" fill="#738bc6"/><path d="M326.433,329.354l-12.785-.117Z" transform="translate(-134 -208)" fill="#738bc6"/></svg>