<svg xmlns="http://www.w3.org/2000/svg" width="192.855" height="211.946" viewBox="0 0 192.855 211.946"><path d="M260.625,434.91h-.313c-.342-1.516-1.712-1.492-2.812-1.873h-.625l-3.125-2.184-.625-.312-1.563-1.249h-.312l-.625-.624-.937-.312-2.188-1.873h-.312l-.626-.624-.624-.312L245,424.61h-.312l-1.876-1.56-.937-.312-1.563-1.561H240l-.938-.936h-.312l-2.813-2.5h-.312l-2.188-2.185-.937-.624-.938-.936c-2.454-2.324-4.916-4.64-7.353-6.982a6.532,6.532,0,0,1-.772-1.133l-1.875-1.873-.937-.936-1.25-1.249-.313-.624-1.562-1.56v-.312c-1.045-1.407-2.073-2.828-3.152-4.208-.192-.245-.6-.32-.91-.474l-.313-.624-.625-.624-.625-.937a4.767,4.767,0,0,0-.381-1.621c-1.388-2.036-2.85-4.024-4.325-6-.189-.252-.607-.333-.919-.494l-4.063-6.242a25.9,25.9,0,0,0-1.088-3.026c-2.336-4.66-4.922-9.2-7.046-13.958-1.741-3.892-2.951-8.02-4.407-12.04-1.317-3.639-2.755-7.226-3.179-11.139-.12-1.113-.958-2.149-1.467-3.22v-1.872c-.373-2.314-.716-4.633-1.136-6.938a20.811,20.811,0,0,0-.739-2.426v-.624a6.778,6.778,0,0,0,.274-1.615c-.153-2.159-.48-4.308-.563-6.467-.173-4.45-.3-8.9-.322-13.357-.048-8.775-.072-17.551.029-26.325a46.329,46.329,0,0,1,.894-6.232l1.25-.936,2.813-1.248h.938a40.41,40.41,0,0,0,4.5-.359,7.1,7.1,0,0,0,2.067-1.2h.625A5.563,5.563,0,0,0,200,263.25h.312l3.75-2.184c6.506-4.336,12.012-9.554,14.7-17.131.972-2.746,1.7-5.58,2.469-8.393a5.1,5.1,0,0,1,5-4.119q48.475-.007,96.95.011.132,1.707.266,3.413l.231.63c.455,2.277.747,4.6,1.393,6.822a42.219,42.219,0,0,0,14.085,21.518,37.249,37.249,0,0,0,17.259,7.794c4.7.839,6.091,2.33,6.061,7.11-.07,11.277-.05,22.557-.308,33.831-.131,5.736-.631,11.476-1.234,17.186a117.6,117.6,0,0,1-5.823,25.2,146.881,146.881,0,0,1-16.287,33.45,150.068,150.068,0,0,1-18.739,23.4c-4.327,4.392-8.974,8.494-13.683,12.482a156.092,156.092,0,0,1-28.916,19.064c-2.85-.014-5-1.8-7.379-2.972-2.8-1.379-5.489-3-8.226-4.517Zm21.178-9.727.386-.258c.578-.346,1.143-.715,1.735-1.036a155.937,155.937,0,0,0,22.107-14.523,146.73,146.73,0,0,0,26.518-26.929A126.488,126.488,0,0,0,351.641,347.3c2.13-6.193,3.738-12.583,5.268-18.959a99.416,99.416,0,0,0,2.5-23.768c-.03-6.4-.007-12.8-.006-19.194,0-3.645-1.517-5.713-4.86-7.173a73.759,73.759,0,0,1-8.208-4.106,57.215,57.215,0,0,1-22.68-24.436,6.27,6.27,0,0,0-5.569-3.905c-3.739-.143-7.486-.109-11.229-.143-.088,0-.176.1-.264.154-.258-.021-.517-.061-.775-.061q-33.245.027-66.489.063a6.452,6.452,0,0,0-6.109,3.817,54.075,54.075,0,0,1-14.152,18.251,62.553,62.553,0,0,1-13.909,8.97c-2,.885-3.905,1.966-5.853,2.958-1.881,1.153-2.324,3-2.422,5.013-1.453.038-1.248,1.137-1.251,2.032q-.025,9.339,0,18.678c0,.431.075.862.121,1.353l1.133-.527q.273,3.435.547,6.87a6.786,6.786,0,0,0-.841,1.306c-.259.71-.258,1.528-.575,2.2-.537,1.141-.163,1.519.97,1.479.359-.013.717-.046,1.075-.07l.07.376-.049,1.569-1.546,1.227-.58-1.2a2.8,2.8,0,0,0,2.737,4.028l.358.932.048,1.193.582,2.242a30.017,30.017,0,0,0,.5,4.45c.678,2.6,1.591,5.134,2.406,7.7l-.949,2.125.447.22,1.061-.447a.13.13,0,0,1,.034.192c-.394.876-.681,1.713.7,1.947l3.036,8.332-.274,2.233,1.146-.216.491.751-.838,1.035.206.272.909-.24.579,1.26c-.753.928-.426,1.288.659,1.25l.578,1.258-1.58,1.3,1.554.751.68-.82,1.516,2.752c-.8.539-.356,1.2,0,1.646.267.337.87.409,1.324.6l.315.923-.608,1.2,1.725.735,1.968,3.083-.883.544.8,1.708,1-.761,4.363,6.248c-.158.4-.545.889-.433,1.193a13.333,13.333,0,0,0,1.325,2.549,1.274,1.274,0,0,0,.97.563c.247-.032.427-.573.637-.888l1.019,1.315-.814.875.519.367.53-1,2.487,2.845.705.984.877,1.163-.852,1.145.217.292,1.31-.739,1.486,1.538-1.491,1.465c-1.154,1.382.021,2.2,1.06,3.041a1.3,1.3,0,0,0,2.2-.554,7.418,7.418,0,0,1,.821-1.113l5.236,5.222-.633,2.179c.884.5,1.912,1.313,2.829-.287l1.239,1.246-1.6,2.264a4.5,4.5,0,0,1,1.782-.172c.566.18,1,.79,1.486,1.212l.528-1.417a5.363,5.363,0,0,1,.923.5c2.113,1.721,4.136,3.562,6.328,5.173,3.237,2.378,6.591,4.6,9.9,6.883-.077,1.09.654.989,1.362.922l.526.315a22.846,22.846,0,0,0,1.47,2.029c.06.069.689-.356,1.054-.552l1.24.677-.5,1.111.261.2.838-.933,4.711,2.639-.673,1.4c2.183,0,4.448.011,6.712-.023.17,0,.335-.32.5-.492l.324-.083.887-.4Zm-54.981-37.027.116-.115-.382-.454-.188.188a1.167,1.167,0,0,0,.88.272l-.506.089.529,1.769.54-.187A2.8,2.8,0,0,0,226.822,388.156Zm18.417,22.612-.4.329c.426.474.771,1.142,1.3,1.363a2.354,2.354,0,0,0,1.678-.262,16.513,16.513,0,0,0,2.062-1.423l-1.321-.532C247.438,411.814,247.119,411.857,245.239,410.768ZM196.247,281.119l.831-.508a15.569,15.569,0,0,0-1.133-1.661c-.074-.086-.577.195-.882.306ZM237.76,400.377a14.69,14.69,0,0,0-1.559-1.609,2.761,2.761,0,0,0-.742.655,5.041,5.041,0,0,0,1.144,1.317C236.769,400.86,237.248,400.55,237.76,400.377Zm-.017,1.894.205.308c.454-.338,1.168-.6,1.286-1.034s-.381-1-.776-1.888Zm-12.693-10.5.208.769,1.852-.477a3.831,3.831,0,0,0-.277-.735C226.231,391.436,225.642,391.614,225.05,391.773ZM247.6,409.925l.19-.656-1.208-.476-.239.8Zm14.811,10.094-.035.588c.408-.073.817-.145,1.222-.231.007,0-.024-.179-.049-.357ZM195.279,284.178l.5.195.358-.989-.47-.178ZM263.65,421.85l-.024.4h1.183l.008-.342Zm-47.537-49.757-.251-.109c-.036.084-.119.186-.095.246s.154.078.238.114Z" transform="translate(-181.891 -231.39)" fill="#f8fcfc"/><path d="M323.441,234.846q-.133-1.707-.266-3.413c2.135-.007,4.273.053,6.4-.034,4.151-.171,5.47,2.162,6.05,5.453a33.031,33.031,0,0,0,4.7,12.237,38.083,38.083,0,0,0,15.227,13.6,42.892,42.892,0,0,0,14.367,4.305,5.141,5.141,0,0,1,4.749,5.235c.026,12.431.184,24.864-.063,37.29A134.88,134.88,0,0,1,372,332.461a141.206,141.206,0,0,1-7.744,26.017,137.826,137.826,0,0,1-12.183,23.6,160.892,160.892,0,0,1-15.107,19.9,130.844,130.844,0,0,1-17.624,16.858c-6.374,4.878-12.872,9.622-19.57,14.04-4.452,2.936-9.349,5.2-14.05,7.757a33.734,33.734,0,0,1-4.563,2.361,14.421,14.421,0,0,1-3.68.341A156.092,156.092,0,0,0,306.4,424.271c4.709-3.988,9.356-8.09,13.683-12.482a150.068,150.068,0,0,0,18.739-23.4,146.881,146.881,0,0,0,16.287-33.45,117.6,117.6,0,0,0,5.823-25.2c.6-5.71,1.1-11.45,1.234-17.186.258-11.274.238-22.554.308-33.831.03-4.78-1.36-6.271-6.061-7.11a37.249,37.249,0,0,1-17.259-7.794A42.219,42.219,0,0,1,325.065,242.3c-.646-2.221-.938-4.545-1.392-6.822Q323.558,235.161,323.441,234.846Z" transform="translate(-181.891 -231.39)" fill="#cbcbcb"/><path d="M183.437,268.867a46.329,46.329,0,0,0-.894,6.232c-.1,8.774-.077,17.55-.029,26.325.024,4.453.149,8.907.322,13.357.083,2.159.41,4.308.563,6.467a6.778,6.778,0,0,1-.274,1.615,14.4,14.4,0,0,1-.6-2.513c-.169-2.79-.3-5.586-.328-8.38q-.194-19.862-.305-39.724C181.885,270.938,181.842,269.5,183.437,268.867Z" transform="translate(-181.891 -231.39)" fill="#f8fafa"/><path d="M185,334.723c.509,1.071,1.347,2.107,1.467,3.22.424,3.913,1.862,7.5,3.179,11.139,1.456,4.02,2.666,8.148,4.407,12.04,2.124,4.753,4.71,9.3,7.046,13.958a25.9,25.9,0,0,1,1.088,3.026c-1.174-1.933-2.485-3.8-3.5-5.812-2.274-4.533-4.678-9.032-6.514-13.744-2.209-5.669-3.945-11.527-5.761-17.343C185.76,339.1,185.462,336.888,185,334.723Z" transform="translate(-181.891 -231.39)" fill="#f8fafa"/><path d="M206.25,384.348c.312.161.73.242.919.494,1.475,1.976,2.937,3.964,4.325,6a4.767,4.767,0,0,1,.381,1.621Z" transform="translate(-181.891 -231.39)" fill="#f8fbfa"/><path d="M183.125,323.487a20.811,20.811,0,0,1,.739,2.426c.42,2.305.763,4.624,1.136,6.938-.194-.143-.533-.263-.559-.431C183.98,329.445,183.557,326.466,183.125,323.487Z" transform="translate(-181.891 -231.39)" fill="#f8fafa"/><path d="M195,265.123a7.1,7.1,0,0,1-2.067,1.2,40.41,40.41,0,0,1-4.5.359Z" transform="translate(-181.891 -231.39)" fill="#f8fafa"/><path d="M213.438,394.648c.308.154.718.229.91.474,1.079,1.38,2.107,2.8,3.152,4.208C215.514,398.316,214.421,396.53,213.438,394.648Z" transform="translate(-181.891 -231.39)" fill="#f7fafa"/><path d="M200,263.25a5.563,5.563,0,0,1-4.375,1.872Z" transform="translate(-181.891 -231.39)" fill="#f8fafa"/><path d="M204.062,261.065l-3.75,2.184Z" transform="translate(-181.891 -231.39)" fill="#f8fafa"/><path d="M235.937,417.744l2.813,2.5Z" transform="translate(-181.891 -231.39)" fill="#f8f9fa"/><path d="M253.75,430.853l3.125,2.184Z" transform="translate(-181.891 -231.39)" fill="#f7fafa"/><path d="M257.5,433.037c1.1.381,2.47.357,2.812,1.873Z" transform="translate(-181.891 -231.39)" fill="#f8fafa"/><path d="M187.5,266.683l-2.813,1.248C185.23,266.628,186.329,266.575,187.5,266.683Z" transform="translate(-181.891 -231.39)" fill="#f8fafa"/><path d="M233.437,415.559l2.188,2.185Z" transform="translate(-181.891 -231.39)" fill="#f8f9fa"/><path d="M247.5,426.483l2.188,1.873Z" transform="translate(-181.891 -231.39)" fill="#f7fafa"/><path d="M221.562,404.011l1.875,1.873Z" transform="translate(-181.891 -231.39)" fill="#f8f9fa"/><path d="M242.812,423.05l1.875,1.56Z" transform="translate(-181.891 -231.39)" fill="#f8fbfa"/><path d="M217.5,399.642l1.562,1.56Z" transform="translate(-181.891 -231.39)" fill="#f7fafa"/><path d="M240.312,421.177l1.563,1.561Z" transform="translate(-181.891 -231.39)" fill="#f8f9fa"/><path d="M251.562,429.292l1.563,1.249Z" transform="translate(-181.891 -231.39)" fill="#f7fafa"/><path d="M219.375,401.826l1.25,1.249Z" transform="translate(-181.891 -231.39)" fill="#f7fafa"/><path d="M260.625,434.91l1.25.936Z" transform="translate(-181.891 -231.39)" fill="#f8fafa"/><path d="M231.562,414l.938.936Z" transform="translate(-181.891 -231.39)" fill="#f8f9fa"/><path d="M239.062,420.241l.938.936Z" transform="translate(-181.891 -231.39)" fill="#f8f9fa"/><path d="M245,424.61l.938.937Z" transform="translate(-181.891 -231.39)" fill="#f8fbfa"/><path d="M246.562,425.859l.626.624Z" transform="translate(-181.891 -231.39)" fill="#f7fafa"/><path d="M250.625,428.668l.625.624Z" transform="translate(-181.891 -231.39)" fill="#f7fafa"/><path d="M212.5,393.4l.625.624Z" transform="translate(-181.891 -231.39)" fill="#f7fafa"/><path d="M203.184,342.715a.13.13,0,0,0-.034-.192q-.281-.95-.559-1.9c-.815-2.562-1.728-5.1-2.406-7.7a30.017,30.017,0,0,1-.5-4.45l-.582-2.242-.048-1.193c-.039-.728-.018-1.466-.129-2.183-.226-1.465-.523-2.918-.791-4.377-.023-.125-.047-.25-.071-.375,0-.159-.008-.318-.012-.477.013-.619.072-1.241.031-1.856-.179-2.695-.525-5.388-.558-8.084-.09-7.487-.14-14.977,0-22.462.029-1.545.962-3.074,1.48-4.609.1-.285.2-.566.3-.849,1.948-.992,3.857-2.073,5.853-2.958a62.553,62.553,0,0,0,13.909-8.97,54.075,54.075,0,0,0,14.152-18.251,6.452,6.452,0,0,1,6.109-3.817q33.244-.039,66.489-.063c.258,0,.517.04.775.061,1.118,1.6,2.31,3.146,3.34,4.8,2.329,3.735,4.431,7.618,6.894,11.261a49.714,49.714,0,0,0,13.023,12.876,60.1,60.1,0,0,0,13.559,7.4,5.787,5.787,0,0,1,2.237,1.943c1.416,1.8,1.676,3.863,1.6,6.177-.256,8.145-.156,16.3-.416,24.445-.121,3.8-.733,7.579-1.173,11.362-.128,1.1-.438,2.178-.649,3.269-.691,3.577-1.222,7.194-2.11,10.722a82.116,82.116,0,0,1-2.875,8.6c-1.7,4.561-3.229,9.219-5.348,13.584a128.7,128.7,0,0,1-8.819,15.5,171.872,171.872,0,0,1-10.833,14.956c-2.856,3.406-5.7,6.841-8.789,10.027-3.35,3.451-6.9,6.72-10.515,9.9-2.969,2.611-6.1,5.051-9.265,7.424-2.668,2-5.492,3.792-8.248,5.676l-4.124-.947-4.711-2.639-.6-.379-1.24-.677-2.524-1.477-.526-.315-1.362-.922c-3.3-2.286-6.658-4.5-9.9-6.883-2.192-1.611-4.215-3.452-6.328-5.173a5.363,5.363,0,0,0-.923-.5L243.79,403.9l-1.239-1.246-2.2-1.892-5.236-5.222-2.59-2.839-1.486-1.538-.675-.7-.877-1.163-.705-.984-2.487-2.845-.235-.238-1.019-1.315-2.5-3.417-4.363-6.248q-.456-.745-.913-1.491l-1.968-3.083-1.117-1.93-.315-.923-1.32-2.245-1.516-2.752-.654-1.234q-.289-.628-.578-1.258-.33-.625-.659-1.25l-.579-1.26q-.138-.533-.277-1.067l-.491-.751-.872-2.017-3.036-8.332Zm117.49,18.591c1.1.177.539-.707.539-1.012q.055-22.137.032-44.276c0-.364-.009-.727-.014-1.091l-.553.075c.243-2.856-3.37-6.138-6.435-6.148-2.422-.008-4.844,0-7.38,0,0-.831,0-1.395,0-1.959q-.015-8.5-.034-17a4.332,4.332,0,0,0-.062-1.241c-.763-2.48-1.57-4.946-2.358-7.417a22.633,22.633,0,0,0-5.8-8.863,31.21,31.21,0,0,0-5.852-4.587,28.7,28.7,0,0,0-12.424-3.805,21.344,21.344,0,0,0-6.095.512,36.58,36.58,0,0,0-7.609,2.049c-5,2.178-8.764,5.918-11.854,10.363a27.656,27.656,0,0,0-4.046,9.37,26.686,26.686,0,0,0-.656,5.8c-.09,4.99-.031,9.983-.04,14.974,0,.555-.05,1.11-.085,1.824-1.683,0-3.236-.068-4.779.02a22.868,22.868,0,0,0-3.923.525,5.943,5.943,0,0,0-5.024,6.333c-.022,6.291-.006,12.583-.007,18.874,0,8.372-.019,16.743.006,25.114a8.667,8.667,0,0,0,.387,3.332c1.2,2.756,3.388,3.922,6.479,3.911,18.585-.072,37.171-.037,55.756-.038h2.415l-1.16.491c1.672,0,3.022.069,4.362-.013,3.806-.233,7.638.537,11.431-.506A6.356,6.356,0,0,0,320.674,361.306Z" transform="translate(-181.891 -231.39)" fill="#1aca8d"/><path d="M278.21,425.7c2.756-1.884,5.58-3.677,8.248-5.676,3.166-2.373,6.3-4.813,9.265-7.424,3.613-3.179,7.165-6.448,10.515-9.9,3.091-3.186,5.933-6.621,8.789-10.027a171.872,171.872,0,0,0,10.833-14.956,128.7,128.7,0,0,0,8.819-15.5c2.119-4.365,3.646-9.023,5.348-13.584a82.116,82.116,0,0,0,2.875-8.6c.888-3.528,1.419-7.145,2.11-10.722.211-1.091.521-2.169.649-3.269.44-3.783,1.052-7.566,1.173-11.362.26-8.144.16-16.3.416-24.445.073-2.314-.187-4.375-1.6-6.177a5.787,5.787,0,0,0-2.237-1.943,60.1,60.1,0,0,1-13.559-7.4,49.714,49.714,0,0,1-13.023-12.876c-2.463-3.643-4.565-7.526-6.894-11.261-1.03-1.651-2.222-3.2-3.34-4.8.088-.053.176-.154.264-.154,3.743.034,7.49,0,11.229.143a6.27,6.27,0,0,1,5.569,3.905,57.215,57.215,0,0,0,22.68,24.436,73.759,73.759,0,0,0,8.208,4.106c3.343,1.46,4.861,3.528,4.86,7.173,0,6.4-.024,12.8.006,19.194a99.416,99.416,0,0,1-2.5,23.768c-1.53,6.376-3.138,12.766-5.268,18.959a126.488,126.488,0,0,1-19.092,35.133,146.73,146.73,0,0,1-26.518,26.929,155.937,155.937,0,0,1-22.107,14.523c-.592.321-1.157.69-1.735,1.036l-.386.258.035-.035-.887.4-.324.083Z" transform="translate(-181.891 -231.39)" fill="#30978f"/><path d="M196.884,306.321l-1.133.527c-.046-.491-.12-.922-.121-1.353q-.011-9.339,0-18.678c0-.895-.2-1.994,1.251-2.032Q196.885,295.554,196.884,306.321Z" transform="translate(-181.891 -231.39)" fill="#f7fdfc"/><path d="M196.884,306.321q0-10.769,0-21.536c.1-2.013.541-3.86,2.422-5.013-.1.283-.208.564-.3.849-.518,1.535-1.451,3.064-1.48,4.609-.143,7.485-.093,14.975,0,22.462.033,2.7.379,5.389.558,8.084.041.615-.018,1.237-.032,1.855a5.246,5.246,0,0,1-.516-1.34c-.1-1.027-.074-2.066-.1-3.1Q197.158,309.756,196.884,306.321Z" transform="translate(-181.891 -231.39)" fill="#caefe6"/><path d="M232.529,392.7l2.59,2.839a7.418,7.418,0,0,0-.821,1.113,1.3,1.3,0,0,1-2.2.554c-1.039-.842-2.214-1.659-1.06-3.041Z" transform="translate(-181.891 -231.39)" fill="#f6fdfd"/><path d="M198.692,324.112a2.8,2.8,0,0,1-2.737-4.028l.58,1.2,1.546-1.227Q198.387,322.083,198.692,324.112Z" transform="translate(-181.891 -231.39)" fill="#f7fdfc"/><path d="M197.431,313.191c.025,1.034,0,2.073.1,3.1a5.246,5.246,0,0,0,.516,1.34c0,.16.008.319.013.478-.357.023-.715.056-1.074.069-1.133.04-1.507-.338-.97-1.479.317-.674.316-1.492.575-2.2A6.786,6.786,0,0,1,197.431,313.191Z" transform="translate(-181.891 -231.39)" fill="#f7fdfc"/><path d="M222.546,380.5l2.5,3.417c-.21.315-.39.856-.637.888a1.274,1.274,0,0,1-.97-.563,13.333,13.333,0,0,1-1.325-2.549C222,381.392,222.388,380.906,222.546,380.5Z" transform="translate(-181.891 -231.39)" fill="#f6fcfc"/><path d="M245.239,410.768c1.88,1.089,2.2,1.046,3.321-.525l1.321.532a16.513,16.513,0,0,1-2.062,1.423,2.354,2.354,0,0,1-1.678.262c-.531-.221-.876-.889-1.3-1.363Z" transform="translate(-181.891 -231.39)" fill="#f6fdfd"/><path d="M243.79,403.9l2.191,1.887-.528,1.417c-.49-.422-.92-1.032-1.486-1.212a4.5,4.5,0,0,0-1.782.172Z" transform="translate(-181.891 -231.39)" fill="#f5fdfc"/><path d="M278.21,425.7l2.417-.06c-.167.172-.332.49-.5.492-2.264.034-4.529.023-6.712.023.271-.566.472-.984.673-1.4Z" transform="translate(-181.891 -231.39)" fill="#eafbf7"/><path d="M240.355,400.762l2.2,1.892c-.917,1.6-1.945.788-2.829.287Z" transform="translate(-181.891 -231.39)" fill="#f6fdfd"/><path d="M198.692,324.112q-.306-2.03-.611-4.059.024-.785.049-1.569c.268,1.459.565,2.912.791,4.377.111.717.09,1.455.129,2.183Z" transform="translate(-181.891 -231.39)" fill="#caefe6"/><path d="M196.247,281.119l-1.184-1.863c.305-.111.808-.392.882-.306a15.569,15.569,0,0,1,1.133,1.661Z" transform="translate(-181.891 -231.39)" fill="#f4fdfd"/><path d="M237.76,400.377c-.512.173-.991.483-1.157.363a5.041,5.041,0,0,1-1.144-1.317,2.761,2.761,0,0,1,.742-.655A14.69,14.69,0,0,1,237.76,400.377Z" transform="translate(-181.891 -231.39)" fill="#f6fdfd"/><path d="M237.743,402.271l.715-2.614c.4.884.891,1.47.776,1.888s-.832.7-1.286,1.034Z" transform="translate(-181.891 -231.39)" fill="#f6fdfd"/><path d="M265.015,419.576l2.524,1.477c-.365.2-.994.621-1.054.552A22.846,22.846,0,0,1,265.015,419.576Z" transform="translate(-181.891 -231.39)" fill="#f4fdfc"/><path d="M210.38,360.6l.654,1.234-.68.82L208.8,361.9Z" transform="translate(-181.891 -231.39)" fill="#f5fdfc"/><path d="M202.591,340.625q.279.949.559,1.9l-1.061.447-.447-.22Z" transform="translate(-181.891 -231.39)" fill="#f3fdfc"/><path d="M217.27,372.764q.457.745.913,1.491l-1,.761-.8-1.708Z" transform="translate(-181.891 -231.39)" fill="#f2fdfc"/><path d="M225.05,391.773c.592-.159,1.181-.337,1.783-.443a3.831,3.831,0,0,1,.277.735l-1.852.477Z" transform="translate(-181.891 -231.39)" fill="#f6fdfd"/><path d="M214.185,367.751l1.117,1.93-1.725-.735Z" transform="translate(-181.891 -231.39)" fill="#f4fdfc"/><path d="M212.55,364.583l1.32,2.245c-.454-.19-1.057-.262-1.324-.6C212.194,365.784,211.752,365.122,212.55,364.583Z" transform="translate(-181.891 -231.39)" fill="#f4fdfc"/><path d="M247.6,409.925l-1.257-.329.239-.8,1.208.476Z" transform="translate(-181.891 -231.39)" fill="#f4fdfd"/><path d="M206.924,352.994l.872,2.017-1.146.216Z" transform="translate(-181.891 -231.39)" fill="#f4fdfd"/><path d="M199.1,326.237l.582,2.242Z" transform="translate(-181.891 -231.39)" fill="#caefe6"/><path d="M227.248,388.047l.563,1.671-.54.187-.529-1.769Z" transform="translate(-181.891 -231.39)" fill="#f6fcfc"/><path d="M203.184,342.715l.7,1.947C202.5,344.428,202.79,343.591,203.184,342.715Z" transform="translate(-181.891 -231.39)" fill="#f3fdfc"/><path d="M230.368,390.465l.675.7-1.31.739-.217-.292Z" transform="translate(-181.891 -231.39)" fill="#f6fcfc"/><path d="M262.41,420.019h1.138c.025.178.056.356.049.357-.4.086-.814.158-1.222.231Z" transform="translate(-181.891 -231.39)" fill="#f4fdfc"/><path d="M226.064,385.235l.235.238-.53,1-.519-.367Z" transform="translate(-181.891 -231.39)" fill="#f6fcfc"/><path d="M209.143,358.089q.328.625.659,1.25C208.717,359.377,208.39,359.017,209.143,358.089Z" transform="translate(-181.891 -231.39)" fill="#f4fdfd"/><path d="M195.279,284.178l.389-.972.47.178-.358.989Z" transform="translate(-181.891 -231.39)" fill="#f7fdfc"/><path d="M263.65,421.85l1.167.063-.008.342h-1.183Z" transform="translate(-181.891 -231.39)" fill="#f4fdfc"/><path d="M268.779,421.73l.6.379-.838.933-.261-.2Z" transform="translate(-181.891 -231.39)" fill="#f4fdfc"/><path d="M208.287,355.762q.138.534.277,1.067l-.909.24-.206-.272Z" transform="translate(-181.891 -231.39)" fill="#f4fdfd"/><path d="M263.127,418.339l1.362.922C263.781,419.328,263.05,419.429,263.127,418.339Z" transform="translate(-181.891 -231.39)" fill="#f4fdfc"/><path d="M216.113,372.093l-.108.251c-.084-.036-.215-.054-.238-.114s.059-.162.095-.246Z" transform="translate(-181.891 -231.39)" fill="#f2fdfc"/><path d="M323.441,234.846q.117.315.232.63Q323.556,235.161,323.441,234.846Z" transform="translate(-181.891 -231.39)" fill="#f6f6f6"/><path d="M228.786,388.318l.705.984Z" transform="translate(-181.891 -231.39)" fill="#f6fcfc"/><path d="M226.822,388.156l-.454-.381.188-.188.382.454Z" transform="translate(-181.891 -231.39)" fill="#f6fcfc"/><path d="M280.951,425.552l.887-.4Z" transform="translate(-181.891 -231.39)" fill="#eafbf7"/><path d="M281.8,425.183l.386-.258Z" transform="translate(-181.891 -231.39)" fill="#eafbf7"/><path d="M320.674,361.306a6.356,6.356,0,0,1-4.779,5.6c-3.793,1.043-7.625.273-11.431.506-1.34.082-2.69.013-4.362.013l1.16-.491h-2.415c-18.585,0-37.171-.034-55.756.038-3.091.011-5.28-1.155-6.479-3.911a8.667,8.667,0,0,1-.387-3.332c-.025-8.371-.008-16.742-.006-25.114,0-6.291-.015-12.583.007-18.874a5.943,5.943,0,0,1,5.024-6.333,22.868,22.868,0,0,1,3.923-.525c1.543-.088,3.1-.02,4.779-.02.035-.714.084-1.269.085-1.824.009-4.991-.05-9.984.04-14.974a26.686,26.686,0,0,1,.656-5.8,27.656,27.656,0,0,1,4.046-9.37c3.09-4.445,6.857-8.185,11.854-10.363a36.58,36.58,0,0,1,7.609-2.049,21.344,21.344,0,0,1,6.095-.512,28.7,28.7,0,0,1,12.424,3.805,31.21,31.21,0,0,1,5.852,4.587,22.633,22.633,0,0,1,5.8,8.863c.788,2.471,1.6,4.937,2.358,7.417a4.332,4.332,0,0,1,.062,1.241q.021,8.5.034,17c0,.564,0,1.128,0,1.959,2.536,0,4.958-.006,7.38,0,3.065.01,6.678,3.292,6.435,6.148-.019,4.937-.054,9.873-.052,14.81Q320.635,345.559,320.674,361.306Zm-42.21-52.44c6.87,0,13.74-.018,20.61.018,1.083,0,1.628-.2,1.556-1.449-.372-6.481.759-13.024-.659-19.451a20.554,20.554,0,0,0-2.3-6.517,31.874,31.874,0,0,0-5.562-6.378c-3.534-3.215-7.985-4.5-12.645-4.893a17.016,17.016,0,0,0-5.152.549c-2.165.5-4.5.9-6.336,2.034a25.379,25.379,0,0,0-7.64,7.124,23.787,23.787,0,0,0-4.019,13.2c-.158,4.673.024,9.357-.061,14.034-.025,1.39.4,1.767,1.756,1.755C264.827,308.835,271.646,308.867,278.464,308.866Zm-3.1,37.445c0,1.142-.01,2.284,0,3.426.024,2.114,1.266,3.569,3.055,3.6,1.918.032,3.149-1.364,3.172-3.648.022-2.232.039-4.465-.007-6.7a2.643,2.643,0,0,1,1.265-2.452,7.2,7.2,0,0,0,1.167-10.582,7.458,7.458,0,0,0-10.719-.412c-2.91,2.861-2.937,8.019.3,10.518a4.3,4.3,0,0,1,1.772,4.223C275.329,344.959,275.365,345.636,275.362,346.311Z" transform="translate(-181.891 -231.39)" fill="#6368fc"/><path d="M320.674,361.306q-.025-15.747-.048-31.494c0-4.937.033-9.873.052-14.81l.553-.075c0,.364.014.727.014,1.091q0,22.139-.032,44.276C321.213,360.6,321.778,361.483,320.674,361.306Z" transform="translate(-181.891 -231.39)" fill="#3d9ed0"/><path d="M278.464,308.866c-6.818,0-13.637-.031-20.454.028-1.356.012-1.781-.365-1.756-1.755.085-4.677-.1-9.361.061-14.034a23.787,23.787,0,0,1,4.019-13.2,25.379,25.379,0,0,1,7.64-7.124c1.834-1.135,4.171-1.535,6.336-2.034a17.016,17.016,0,0,1,5.152-.549c4.66.394,9.111,1.678,12.645,4.893a31.874,31.874,0,0,1,5.562,6.378,20.554,20.554,0,0,1,2.3,6.517c1.418,6.427.287,12.97.659,19.451.072,1.251-.473,1.454-1.556,1.449C292.2,308.848,285.334,308.866,278.464,308.866Z" transform="translate(-181.891 -231.39)" fill="#1ac98d"/><path d="M275.364,346.311c0-.675-.035-1.352.008-2.024a4.3,4.3,0,0,0-1.772-4.223c-3.239-2.5-3.212-7.657-.3-10.518a7.458,7.458,0,0,1,10.719.412,7.2,7.2,0,0,1-1.167,10.582,2.643,2.643,0,0,0-1.265,2.452c.046,2.231.029,4.464.007,6.7-.023,2.284-1.254,3.68-3.172,3.648-1.789-.03-3.031-1.485-3.055-3.6C275.352,348.6,275.362,347.453,275.364,346.311Z" transform="translate(-181.891 -231.39)" fill="#f5f9fc"/></svg>