<svg xmlns="http://www.w3.org/2000/svg" width="249.551" height="233.075" viewBox="0 0 249.551 233.075"><path d="M193,372.384c.627-2.89,1.265-5.779,1.88-8.672a81.414,81.414,0,0,1,58.135-61.2,78.546,78.546,0,0,1,39.923-.5c25,6.277,43.087,21.159,54.471,44.17a75.884,75.884,0,0,1,7.469,27.727c1.755,21.435-4.232,40.446-17.429,57.3a16.609,16.609,0,0,0-.9,1.472l106,89.14L433.4,532.743c-2.707-2.242-5.264-4.33-7.789-6.456q-44.91-37.818-89.815-75.644c-2.664-2.243-5.429-4.37-8.033-6.679-1.064-.943-1.759-.992-2.861-.093A80.1,80.1,0,0,1,263.568,461.3,80.089,80.089,0,0,1,220.3,441.529a78.717,78.717,0,0,1-24.386-39.214c-.9-3.351-1.364-6.82-2.083-10.223a14.2,14.2,0,0,0-.831-2.164Zm41.7,8.384a9.117,9.117,0,0,0,.727,1.119,66.215,66.215,0,0,0,22.7,16.709c7.784,3.4,15.87,4.532,24.218,2.522,12.071-2.9,21.617-9.885,30.008-18.732,1.092-1.151,1.1-1.876.042-3.005a71.609,71.609,0,0,0-15.943-12.963c-6.138-3.625-12.662-6.191-19.838-6.679-8.878-.6-16.909,2.1-24.5,6.5A68.948,68.948,0,0,0,234.7,380.768Z" transform="translate(-193 -299.669)" fill="#43ba8c"/><path d="M234.7,380.768a68.948,68.948,0,0,1,17.418-14.532c7.587-4.4,15.618-7.1,24.5-6.5,7.176.488,13.7,3.054,19.838,6.679a71.609,71.609,0,0,1,15.943,12.963c1.053,1.129,1.05,1.854-.042,3.005-8.391,8.847-17.937,15.827-30.008,18.732-8.348,2.01-16.434.882-24.218-2.522a66.215,66.215,0,0,1-22.7-16.709A9.117,9.117,0,0,1,234.7,380.768Zm39.384-6.96a7.076,7.076,0,1,0,.152,14.151,7.076,7.076,0,0,0-.152-14.151Z" transform="translate(-193 -299.669)" fill="#f4f4f4"/><path d="M274.083,373.808a7.076,7.076,0,0,1,.152,14.151,7.076,7.076,0,1,1-.152-14.151Z" transform="translate(-193 -299.669)" fill="#48ba8d"/></svg>