<svg xmlns="http://www.w3.org/2000/svg" width="250" height="250" viewBox="0 0 250 250"><path d="M288.567,272c.47.324.922.9,1.412.933a77.646,77.646,0,0,1,17.331,3.218,86.747,86.747,0,0,1,21.745,9.841,83.762,83.762,0,0,1,26.4,26c6.044,9.628,10.941,19.839,12.546,31.28.783,5.581,1.9,11.208,1.8,16.8a87.783,87.783,0,0,1-21.921,57.6,86.749,86.749,0,0,1-27.451,20.827,84.811,84.811,0,0,1-26.516,7.981,90.079,90.079,0,0,1-27.9-.868,85.868,85.868,0,0,1-31.054-12.333,87.14,87.14,0,0,1-39.011-60.208,5.375,5.375,0,0,0-.949-1.651V347.536c.329-.465.835-.887.957-1.4.766-3.21,1.32-6.474,2.179-9.657a88.315,88.315,0,0,1,9.185-21.486c5.239-9,12.222-16.462,20.1-23.075a78.815,78.815,0,0,1,22.5-13.076,82.667,82.667,0,0,1,25.053-5.9c.648-.038,1.265-.611,1.9-.936Zm-6.429,166.764c43.078.467,79.264-34.9,79.182-79.165-.079-43.229-35.478-78.71-78.791-78.768-43.5-.059-79.182,35.457-79.206,78.842A78.845,78.845,0,0,0,282.138,438.764Z" transform="translate(-195 -272)" fill="#fafdfd"/><path d="M445,404.554c-.863.922-2.076,1.7-2.529,2.79-2.193,5.279-4.156,10.652-6.25,15.972q-3.986,10.127-8.055,20.218c-1.582,3.911-5.216,4.592-8.117,1.627-2.775-2.836-5.6-5.626-8.574-8.612-.781.714-1.44,1.272-2.05,1.881q-11.552,11.535-23.093,23.082a5.944,5.944,0,0,1-8.4,0c-6.322-6.309-12.66-12.6-18.926-18.965-1.3-1.319-2.186-1.735-3.777-.268-5.587,5.15-11.352,10.106-16.989,15.2q-13.587,12.286-27.1,24.662c-6.1,5.567-12.149,11.178-18.238,16.752-7.458,6.827-14.947,13.622-22.391,20.464-1.568,1.441-2.856,1.194-4.106-.336-3.375-4.131-3.4-4.158.64-7.9,8.42-7.8,16.832-15.619,25.318-23.35,6.216-5.662,12.584-11.157,18.813-16.8,5.986-5.428,11.844-11,17.825-16.432q12.39-11.256,24.89-22.389c2.73-2.435,4.423-2.356,7.319.513,5.8,5.739,11.461,11.607,17.209,17.394,1.127,1.135,2.382,2.144,3.674,3.3l23.133-23.123c-2.742-2.7-5.258-5.585-8.178-7.971-3.842-3.139-2.585-7.119,1.638-8.715,7.485-2.83,14.867-5.931,22.307-8.881,5.778-2.292,11.607-4.459,17.352-6.829a4.1,4.1,0,0,1,4.7.589,6.7,6.7,0,0,0,1.944.776Zm-22.631,30.679c3.44-8.609,6.87-17.191,10.5-26.289l-26.337,10.524Z" transform="translate(-195 -272)" fill="#fdfdfd"/><path d="M445,272.487l-.487-.487Z" transform="translate(-195 -272)" fill="#fdfdfd"/><path d="M195,521.513l.487.487Z" transform="translate(-195 -272)" fill="#fdfdfd"/><path d="M444.513,522l.487-.487Z" transform="translate(-195 -272)" fill="#fdfdfd"/><path d="M282.138,438.764a78.845,78.845,0,0,1-78.815-79.091c.024-43.385,35.7-78.9,79.206-78.842,43.313.058,78.712,35.539,78.791,78.768C361.4,403.86,325.216,439.231,282.138,438.764Zm4.44-24.751c.807-.089,1.28-.156,1.756-.192a24.724,24.724,0,0,0,21.954-17.5c1.821-6.033,1.548-12.268.877-18.368-1.221-11.082-8.256-19.071-19.1-21.469-4.438-.981-9.195-.488-13.8-.739-7.05-.385-12.436-3.5-15.263-10.115-2.482-5.814-1.836-12.021-1.006-18.006a15.25,15.25,0,0,1,13.438-13.118,57.61,57.61,0,0,1,13.588-.042c6.182.69,10.478,4.417,12.852,10.148a45.844,45.844,0,0,1,1.618,6.008h7.706c.428-4.451-1.37-10.3-4.469-14.456-4.958-6.647-11.685-10.017-20.2-10.43V289.151c-2.312,0-4.33.089-6.336-.027-1.766-.1-2.192.65-2.15,2.292.1,3.9-.087,7.8.068,11.693.082,2.041-.452,2.827-2.617,2.983a24.429,24.429,0,0,0-21.151,17.415c-1.693,5.882-1.218,11.875-.921,17.836.556,11.181,10.071,21.224,21.213,22.311,4.093.4,8.235.306,12.355.422,7.231.2,13.914,4.931,15.2,11.99a51.52,51.52,0,0,1,.395,16.141c-1.023,7.289-6.054,11.776-13.239,13.067-3.862.694-7.939.376-11.909.235a15.191,15.191,0,0,1-13.1-7.55c-1.577-2.632-2.309-5.769-3.477-8.82h-7.5a22.733,22.733,0,0,0,5.069,15.045c4.89,6.307,11.529,9.443,19.644,9.825v2.9c0,3.9-.056,7.8.05,11.694.019.692.667,1.921,1.1,1.956,2.387.193,4.8.092,7.356.092Z" transform="translate(-195 -272)" fill="#11ca8f"/><path d="M422.369,435.233l-15.832-15.765,26.337-10.524C429.239,418.042,425.809,426.624,422.369,435.233Z" transform="translate(-195 -272)" fill="#356ef8"/><path d="M286.578,414.013v16.638c-2.559,0-4.969.1-7.356-.092-.434-.035-1.082-1.264-1.1-1.956-.106-3.9-.051-7.8-.05-11.694v-2.9c-8.115-.382-14.754-3.518-19.644-9.825a22.733,22.733,0,0,1-5.069-15.045h7.5c1.168,3.051,1.9,6.188,3.477,8.82a15.191,15.191,0,0,0,13.1,7.55c3.97.141,8.047.459,11.909-.235,7.185-1.291,12.216-5.778,13.239-13.067a51.52,51.52,0,0,0-.395-16.141c-1.286-7.059-7.969-11.785-15.2-11.99-4.12-.116-8.262-.023-12.355-.422-11.142-1.087-20.657-11.13-21.213-22.311-.3-5.961-.772-11.954.921-17.836a24.429,24.429,0,0,1,21.151-17.415c2.165-.156,2.7-.942,2.617-2.983-.155-3.892.031-7.8-.068-11.693-.042-1.642.384-2.394,2.15-2.292,2.006.116,4.024.027,6.336.027v16.586c8.513.413,15.24,3.783,20.2,10.43,3.1,4.153,4.9,10.005,4.469,14.456h-7.706a45.844,45.844,0,0,0-1.618-6.008c-2.374-5.731-6.67-9.458-12.852-10.148a57.61,57.61,0,0,0-13.588.042,15.25,15.25,0,0,0-13.438,13.118c-.83,5.985-1.476,12.192,1.006,18.006,2.827,6.618,8.213,9.73,15.263,10.115,4.608.251,9.365-.242,13.8.739,10.846,2.4,17.881,10.387,19.1,21.469.671,6.1.944,12.335-.877,18.368a24.724,24.724,0,0,1-21.954,17.5C287.858,413.857,287.385,413.924,286.578,414.013Z" transform="translate(-195 -272)" fill="#f7fcfc"/></svg>